HIERARCHY
ROOT Model_Hips
{
	OFFSET 0.000000 96.915077 0.000000
	CHANNELS 6 Xposition Yposition Zposition Xrotation Yrotation Zrotation
	JOINT Model_Spine
	{
		OFFSET 0.000000 11.137703 -1.289900
		CHANNELS 3 Xrotation Yrotation Zrotation
		JOINT Model_Spine1
		{
			OFFSET 0.000000 12.993942 -1.504922
			CHANNELS 3 Xrotation Yrotation Zrotation
			JOINT Model_Spine2
			{
				OFFSET 0.000000 14.850220 -1.719911
				CHANNELS 3 Xrotation Yrotation Zrotation
				JOINT Model_Neck
				{
					OFFSET 0.000000 16.706543 -1.934903
					CHANNELS 3 Xrotation Yrotation Zrotation
					JOINT Model_Head
					{
						OFFSET 0.000000 10.471298 2.002100
						CHANNELS 3 Xrotation Yrotation Zrotation
						JOINT Model_HeadTop_End
						{
							OFFSET 0.000000 20.842606 3.985100
							CHANNELS 3 Xrotation Yrotation Zrotation
							End Site
							{
								OFFSET 0.000000 21.220154 0.000000
							}
						}
					}
				}
				JOINT Model_LeftShoulder
				{
					OFFSET 7.008500 14.768600 -1.919946
					CHANNELS 3 Xrotation Yrotation Zrotation
					JOINT Model_LeftArm
					{
						OFFSET 14.126271 -3.718048 0.029937
						CHANNELS 3 Xrotation Yrotation Zrotation
						JOINT Model_LeftForeArm
						{
							OFFSET 28.282801 0.000000 0.000000
							CHANNELS 3 Xrotation Yrotation Zrotation
							JOINT Model_LeftHand
							{
								OFFSET 26.204689 0.000000 0.000000
								CHANNELS 3 Xrotation Yrotation Zrotation
								End Site
								{
									OFFSET 26.204704 0.000000 0.000000
								}
							}
						}
					}
				}
				JOINT Model_RightShoulder
				{
					OFFSET -7.008500 14.768555 -1.949840
					CHANNELS 3 Xrotation Yrotation Zrotation
					JOINT Model_RightArm
					{
						OFFSET -14.126281 -3.718018 -0.029932
						CHANNELS 3 Xrotation Yrotation Zrotation
						JOINT Model_RightForeArm
						{
							OFFSET -28.283798 0.000000 -0.000001
							CHANNELS 3 Xrotation Yrotation Zrotation
							JOINT Model_RightHand
							{
								OFFSET -26.204193 0.000000 -0.000001
								CHANNELS 3 Xrotation Yrotation Zrotation
								End Site
								{
									OFFSET -26.204208 0.000000 -0.000001
								}
							}
						}
					}
				}
			}
		}
	}
	JOINT Model_LeftUpLeg
	{
		OFFSET 8.327700 -6.193199 -0.402800
		CHANNELS 3 Xrotation Yrotation Zrotation
		JOINT Model_LeftLeg
		{
			OFFSET 0.735802 -42.108742 -0.610721
			CHANNELS 3 Xrotation Yrotation Zrotation
			JOINT Model_LeftFoot
			{
				OFFSET -0.735806 -36.833748 -0.172876
				CHANNELS 3 Xrotation Yrotation Zrotation
				JOINT Model_LeftToeBase
				{
					OFFSET -0.565857 -11.977769 16.297714
					CHANNELS 3 Xrotation Yrotation Zrotation
					JOINT Model_LeftToe_End
					{
						OFFSET -0.111712 -0.312793 7.857784
						CHANNELS 3 Xrotation Yrotation Zrotation
						End Site
						{
							OFFSET -0.111712 -0.312793 7.857784
						}
					}
				}
			}
		}
	}
	JOINT Model_RightUpLeg
	{
		OFFSET -8.327700 -6.193199 -0.516500
		CHANNELS 3 Xrotation Yrotation Zrotation
		JOINT Model_RightLeg
		{
			OFFSET -0.735785 -42.108738 -0.434061
			CHANNELS 3 Xrotation Yrotation Zrotation
			JOINT Model_RightFoot
			{
				OFFSET 0.735776 -36.833748 -0.021630
				CHANNELS 3 Xrotation Yrotation Zrotation
				JOINT Model_RightToeBase
				{
					OFFSET 0.565817 -11.977745 15.903093
					CHANNELS 3 Xrotation Yrotation Zrotation
					JOINT Model_RightToe_End
					{
						OFFSET 0.111702 -0.312791 7.811342
						CHANNELS 3 Xrotation Yrotation Zrotation
						End Site
						{
							OFFSET 0.111702 -0.312791 7.811342
						}
					}
				}
			}
		}
	}
}
MOTION
Frames: 14
Frame Time: 0.016667
8.673159 94.458206 62.035675 -3.204736 46.984677 -4.456955 2.292147 -1.603741 1.091934 4.611177 -3.151265 2.081991 4.611175 -3.151255 2.081990 -0.588765 2.654949 -0.786430 -0.588779 2.654957 -0.786426 0.000001 0.000004 -0.000000 0.577988 -3.825289 -12.276689 -0.270726 -3.988208 -68.291394 27.924965 -13.144974 7.387881 -0.000001 -0.000000 0.000001 0.452665 4.436112 20.411877 -1.684668 -8.387319 64.294387 -7.526004 14.677363 2.632107 -0.000002 -0.000001 0.000000 -0.156919 7.404909 -6.300373 19.643047 -28.437458 -1.463713 -8.436600 -2.857202 24.912162 -5.060940 -0.000004 0.000003 0.000001 0.000002 0.000000 -20.961046 3.540387 -0.290369 51.486458 -11.825871 -0.088930 -2.040254 -0.040487 12.999267 -16.831237 -1.028737 2.333741 -0.000000 0.000000 -0.000000 
9.008347 94.758621 63.339104 -3.271000 50.558020 -4.598596 2.420234 -1.742524 1.102312 4.867257 -3.421351 2.033282 4.867257 -3.421359 2.033285 -0.574453 2.430224 -0.490971 -0.574456 2.430227 -0.490967 0.000001 -0.000001 0.000000 0.566064 -4.743522 -11.517873 -1.640439 -5.614658 -67.898876 29.012048 -14.353270 8.388925 -0.000002 -0.000000 -0.000001 0.470290 4.203530 21.037421 -1.862648 -8.490472 63.951000 -8.712068 14.976981 3.023823 -0.000000 -0.000000 -0.000000 0.674393 7.479000 -4.963782 19.886516 -31.580889 -1.688494 -8.206121 -2.933113 25.704795 -5.098713 -0.000014 -0.000010 0.000000 0.000001 0.000000 -21.539410 4.116636 0.056879 47.674276 -11.969340 -0.234301 -2.628023 0.041684 11.054775 -10.993881 -1.011594 3.449183 -0.000000 0.000000 0.000000 
9.371382 95.001282 64.630058 -3.277642 53.765323 -4.761177 2.554145 -1.827128 1.135065 5.134314 -3.583322 2.024366 5.134314 -3.583316 2.024362 -0.601835 2.226075 -0.253445 -0.601836 2.226078 -0.253443 0.000001 0.000001 -0.000000 0.564687 -5.682690 -10.867107 -2.987143 -7.193240 -67.438317 30.300635 -15.495956 9.462333 0.000000 0.000000 0.000000 0.489762 3.984803 21.537762 -2.145168 -8.541218 63.628205 -9.601081 15.118344 3.321051 0.000003 -0.000000 -0.000000 1.203639 7.454750 -3.671302 20.461864 -34.108646 -1.884674 -8.135718 -3.079536 26.553921 -5.218828 0.000003 -0.000010 -0.000000 0.000001 -0.000000 -21.959596 4.492975 0.345180 43.220133 -11.661605 -0.439691 -3.431575 0.118948 9.035026 -3.272343 -0.541895 4.482542 -0.000001 0.000001 -0.000001 
9.775986 95.206345 65.914337 -3.149807 56.493017 -5.000992 2.680185 -1.853512 1.192831 5.385439 -3.630533 2.064307 5.385441 -3.630539 2.064305 -0.668273 2.055339 -0.101670 -0.668266 2.055357 -0.101675 0.000001 0.000003 -0.000000 0.570699 -6.611924 -10.353205 -4.262827 -8.677149 -66.911060 31.562680 -16.630247 10.562786 0.000001 0.000001 -0.000001 0.509165 3.788630 21.874991 -2.508375 -8.538275 63.351459 -10.208033 15.139789 3.524446 -0.000002 -0.000000 0.000001 1.490710 7.308925 -2.485095 21.227212 -35.955308 -2.043403 -8.142113 -3.264748 27.399382 -5.404531 -0.000007 0.000002 -0.000000 -0.000002 0.000000 -22.195352 4.600757 0.558541 37.859301 -10.833261 -0.641499 -4.519719 0.151172 7.483606 2.122681 0.000014 0.000075 0.000000 -0.000001 0.000000 
10.234974 95.398323 67.194557 -2.860901 58.682636 -5.330991 2.788375 -1.824437 1.262736 5.600947 -3.570734 2.137723 5.600948 -3.570707 2.137719 -0.760446 1.923406 -0.037383 -0.760447 1.923393 -0.037383 0.000001 -0.000000 -0.000000 0.579554 -7.498538 -9.982326 -5.405390 -10.033519 -66.315980 32.578018 -17.824765 11.635067 -0.000000 -0.000000 -0.000000 0.527107 3.615892 22.038196 -2.923853 -8.497754 63.136097 -10.533171 15.097735 3.636232 -0.000003 0.000000 0.000000 1.648546 7.068177 -1.459728 22.007138 -37.158172 -2.161224 -8.120431 -3.440639 28.159079 -6.040355 0.002833 -0.401636 0.000000 0.000001 -0.000000 -22.147667 4.445753 0.671070 31.830953 -9.484453 -0.756491 -5.721301 0.124708 6.711512 1.247605 -0.000007 0.000092 0.000000 -0.000001 0.000000 
10.773104 95.585793 68.479729 -2.419231 60.526042 -5.729286 2.873168 -1.750081 1.319783 5.769631 -3.423747 2.207381 5.769634 -3.423739 2.207375 -0.856757 1.826861 -0.035987 -0.856755 1.826852 -0.035986 -0.000001 -0.000002 0.000001 0.587842 -8.312642 -9.739031 -6.351530 -11.244433 -65.651628 33.179993 -19.137874 12.621277 0.000000 -0.000001 0.000002 0.543481 3.462589 22.042275 -3.365697 -8.449972 62.986099 -10.555209 15.050735 3.655062 -0.000001 0.000000 -0.000001 1.763725 6.799671 -0.577577 22.724033 -38.035008 -2.252336 -7.973605 -3.560567 28.808758 -7.094838 0.025022 -1.192568 0.000000 0.000000 -0.000000 -21.646384 4.078729 0.543584 27.112994 -7.858465 -0.744811 -6.819210 0.052362 6.610500 1.215522 -0.000006 0.000091 0.000000 0.000004 0.000001 
11.361797 95.783127 69.760330 -1.795002 62.565243 -6.227883 2.932866 -1.646049 1.356038 5.887076 -3.221021 2.230702 5.887077 -3.221017 2.230702 -0.936359 1.756884 -0.060661 -0.936349 1.756878 -0.060636 -0.000000 0.000002 0.000000 0.593991 -9.030139 -9.591877 -7.050688 -12.304154 -64.920839 33.283423 -20.599232 13.467784 -0.000001 -0.000001 0.000003 0.558555 3.324294 21.922906 -3.814330 -8.431825 62.895141 -10.235215 15.044805 3.573882 0.000003 0.000000 0.000000 1.783720 6.566887 0.318662 23.404874 -39.251629 -2.353707 -7.547502 -3.571509 29.377398 -8.266003 0.076734 -2.088830 -0.000000 0.000002 -0.000000 -20.061782 3.481300 0.301246 20.391099 -6.175314 -0.564939 -6.829736 0.035930 7.074750 1.964464 -0.000010 0.000099 0.000000 -0.000002 0.000000 
11.945386 95.977501 71.042831 -1.245735 64.004077 -6.584275 2.967121 -1.526827 1.342904 5.953274 -3.003718 2.180306 5.953271 -3.003735 2.180311 -0.989438 1.704180 -0.080699 -0.989460 1.704175 -0.080691 0.000001 0.000000 0.000000 0.598364 -9.634720 -9.502170 -7.475798 -13.213799 -64.134240 32.890212 -22.199790 14.132814 -0.000001 -0.000001 0.000001 0.572533 3.198601 21.725592 -4.256497 -8.476862 62.849502 -9.530876 15.104265 3.381337 0.000002 -0.000000 -0.000000 1.832913 6.469145 1.040726 24.035900 -40.077675 -2.420924 -7.003968 -3.491509 29.698902 -9.537687 0.167214 -3.085735 0.000000 0.000000 -0.000000 -20.757522 2.900051 0.734048 13.362469 -4.700877 -0.407070 -8.842984 -0.374995 8.093009 3.140607 0.000002 0.000111 -0.000001 0.000000 0.000001 
12.605844 96.114975 72.363770 -0.803763 65.056596 -6.792087 2.977450 -1.421644 1.292782 5.971030 -2.816008 2.055169 5.971032 -2.816020 2.055171 -1.020624 1.662041 -0.081458 -1.020620 1.662028 -0.081459 -0.000000 -0.000000 0.000000 0.602177 -10.118542 -9.432634 -7.627678 -13.976072 -63.310936 32.075132 -23.892639 14.593768 -0.000001 -0.000003 0.000000 0.584988 3.086342 21.495077 -4.682306 -8.606563 62.831894 -8.415888 15.229817 3.066718 0.000001 -0.000001 0.000000 1.908034 6.518651 1.667105 24.793500 -40.712524 -2.472294 -6.439065 -3.360616 29.899187 -10.891057 0.304630 -4.171016 -0.000000 -0.000001 -0.000000 -19.588079 2.241933 1.044304 4.386837 -3.623527 -0.309660 -8.368415 -0.589319 8.486215 4.298774 0.000017 0.000118 0.000002 0.000001 -0.000000 
13.365318 96.153206 73.739845 -0.449806 65.911865 -6.882539 2.966421 -1.355735 1.206140 5.946315 -2.694738 1.878032 5.946317 -2.694737 1.878029 -1.041745 1.627239 -0.062853 -1.041733 1.627226 -0.062836 0.000000 0.000001 -0.000000 0.607168 -10.482269 -9.355823 -7.532480 -14.591825 -62.474832 30.961135 -25.603353 14.852050 0.000000 0.000000 0.000000 0.595737 2.990439 21.266537 -5.081146 -8.825134 62.825323 -6.898842 15.403412 2.626824 0.000004 -0.000000 -0.000000 1.998700 6.676027 2.282007 25.702946 -41.281148 -2.563806 -5.947297 -3.237916 30.040958 -11.307760 0.322703 -4.295879 -0.000000 0.000005 0.000000 -21.642993 1.169952 1.442664 4.401705 -2.066099 -0.270020 -11.237946 -0.965322 8.454210 5.109520 0.000008 0.000137 0.000001 0.000002 -0.000000 
14.227303 96.106270 75.161880 -0.166069 66.698341 -6.918766 2.940096 -1.334806 1.115694 5.891089 -2.661010 1.683688 5.891092 -2.661035 1.683692 -1.059968 1.598546 -0.032137 -1.059969 1.598522 -0.032133 0.000000 0.000000 0.000000 0.614167 -10.733241 -9.258879 -7.234306 -15.059070 -61.651241 29.692338 -27.245256 14.933065 -0.000003 0.000000 0.000001 0.604399 2.914730 21.061428 -5.438253 -9.119050 62.816143 -5.035179 15.597403 2.072267 0.000002 -0.000000 -0.000000 2.084401 6.872142 2.945771 26.762059 -41.807093 -2.706286 -5.465668 -3.118603 30.166009 -11.004741 0.233175 -3.651068 0.000000 -0.000001 0.000000 -23.263001 -0.058703 1.849650 4.463075 0.005683 -0.201009 -13.399669 -1.158451 7.850596 5.440580 -0.000020 0.000129 -0.000001 -0.000001 -0.000000 
15.202782 96.012108 76.614555 0.019815 67.492227 -6.898507 2.907107 -1.360522 1.035636 5.822828 -2.716701 1.504648 5.822828 -2.716720 1.504649 -1.072955 1.576180 0.001343 -1.072960 1.576191 0.001348 0.000001 -0.000000 0.000000 0.622751 -10.883726 -9.144220 -6.785839 -15.373571 -60.864273 28.411162 -28.733831 14.880617 -0.000000 0.000001 0.000001 0.610847 2.861781 20.886143 -5.733416 -9.460967 62.795113 -2.927054 15.784603 1.430041 0.000002 -0.000001 0.000000 2.209995 7.039076 3.647731 27.901244 -42.264316 -2.864520 -4.860864 -2.964467 30.278433 -11.531799 0.193737 -3.228204 0.000000 -0.000002 -0.000000 -24.330710 -1.090229 2.259494 4.550701 2.257172 -0.109693 -14.892521 -1.187350 6.833218 5.319413 0.000036 0.000133 0.000001 0.000002 0.000000 
16.298096 95.903969 78.084610 0.032614 68.328516 -6.760038 2.875207 -1.426491 0.975137 5.757083 -2.847811 1.361035 5.757085 -2.847809 1.361030 -1.072794 1.559607 0.027454 -1.072788 1.559617 0.027469 -0.000000 -0.000001 -0.000000 0.631394 -10.949008 -9.025425 -6.239969 -15.530064 -60.137521 27.239860 -29.996873 14.746436 0.000001 0.000002 0.000001 0.615035 2.830988 20.736454 -5.942736 -9.816298 62.757274 -0.709354 15.945702 0.740611 0.000005 0.000000 -0.000000 2.471173 7.121316 4.359769 28.974223 -42.616135 -3.010961 -4.029614 -2.746957 30.312103 -14.494507 0.251186 -2.496910 0.000000 0.000001 0.000000 -24.774740 -1.721852 2.665596 4.648670 4.326734 -0.012375 -15.700383 -1.109621 5.624535 4.841871 -0.000020 0.000120 0.000001 -0.000000 0.000001 
17.520689 95.789894 79.571945 -0.229778 69.225060 -6.385009 2.844814 -1.522651 0.936381 5.694584 -3.032916 1.258444 5.694584 -3.032896 1.258440 -1.050308 1.549836 0.032038 -1.050310 1.549829 0.032042 0.000001 -0.000001 -0.000000 0.638482 -10.946024 -8.920496 -5.644085 -15.522978 -59.496091 26.267451 -30.978709 14.577973 -0.000001 -0.000001 -0.000001 0.617522 2.817162 20.604447 -6.043474 -10.150751 62.700467 1.475197 16.071097 0.049764 0.000003 0.000000 0.000000 2.934324 7.087133 5.042146 29.912093 -42.858535 -3.131271 -2.892709 -2.438386 30.179365 -17.903382 0.246572 -1.606746 0.000001 -0.000004 0.000000 -24.599606 -1.773275 3.053390 4.749133 5.739300 0.066405 -15.760846 -0.955362 4.476991 4.101251 -0.000007 0.000149 0.000002 -0.000000 0.000000 
